<svg width="372" height="64" viewBox="0 0 372 64" fill="none" xmlns="http://www.w3.org/2000/svg">
<path d="M22.8572 13.7143C22.8572 11.1895 24.9039 9.14284 27.4286 9.14284H36.5714C39.0962 9.14284 41.1429 11.1895 41.1429 13.7143C41.1429 16.239 39.0962 18.2857 36.5714 18.2857H27.4286C24.9039 18.2857 22.8572 16.239 22.8572 13.7143Z" fill="#894FE5"/>
<path d="M45.7143 9.14286C45.7143 4.0934 49.8077 0 54.8571 0C59.9066 0 64 4.0934 64 9.14286C64 14.1923 59.9066 18.2857 54.8571 18.2857C49.8077 18.2857 45.7143 14.1923 45.7143 9.14286Z" fill="#894FE5"/>
<path d="M0 32C0 26.9506 4.0934 22.8572 9.14286 22.8572C14.1923 22.8572 18.2857 26.9506 18.2857 32C18.2857 37.0495 14.1923 41.1429 9.14286 41.1429C4.0934 41.1429 0 37.0495 0 32Z" fill="#894FE5"/>
<path d="M22.8572 32C22.8572 26.9506 26.9506 22.8572 32 22.8572C37.0495 22.8572 41.1429 26.9506 41.1429 32C41.1429 37.0495 37.0495 41.1429 32 41.1429C26.9506 41.1429 22.8572 37.0495 22.8572 32Z" fill="#894FE5"/>
<path d="M45.7143 32C45.7143 26.9506 49.8077 22.8572 54.8571 22.8572C59.9066 22.8572 64 26.9506 64 32C64 37.0495 59.9066 41.1429 54.8571 41.1429C49.8077 41.1429 45.7143 37.0495 45.7143 32Z" fill="#894FE5"/>
<path d="M0 54.8571C0 49.8077 4.0934 45.7143 9.14286 45.7143C14.1923 45.7143 18.2857 49.8077 18.2857 54.8571C18.2857 59.9066 14.1923 64 9.14286 64C4.0934 64 0 59.9066 0 54.8571Z" fill="#894FE5"/>
<path d="M22.8572 50.2857C22.8572 47.761 24.9039 45.7143 27.4286 45.7143H36.5714C39.0962 45.7143 41.1429 47.761 41.1429 50.2857C41.1429 52.8104 39.0962 54.8571 36.5714 54.8571H27.4286C24.9039 54.8571 22.8572 52.8104 22.8572 50.2857Z" fill="#894FE5"/>
<path d="M105.133 30.8326C105.133 28.4063 104.469 26.4607 103.142 24.9957C101.86 23.5308 100.029 22.7983 97.6481 22.7983C95.3133 22.7983 93.4363 23.5536 92.0172 25.0644C90.598 26.5293 89.8884 28.4521 89.8884 30.8326V46.6953C89.8884 47.1073 89.7282 47.4506 89.4077 47.7253C89.0873 47.9542 88.7439 48.0687 88.3777 48.0687H81.4421C81.03 48.0687 80.6867 47.9313 80.412 47.6567C80.1373 47.382 80 47.0386 80 46.6266V1.44206C80 1.03004 80.1373 0.686697 80.412 0.41202C80.6867 0.13734 81.03 0 81.4421 0H88.3777C88.7439 0 89.0873 0.13734 89.4077 0.41202C89.7282 0.640918 89.8884 0.961376 89.8884 1.37339V18.1288C90.8956 16.9385 92.2918 15.9084 94.0773 15.0386C95.9084 14.123 98.1288 13.6652 100.738 13.6652C102.936 13.6652 104.927 14.0315 106.712 14.7639C108.498 15.4964 110.009 16.5265 111.245 17.8541C112.481 19.1359 113.419 20.6695 114.06 22.4549C114.747 24.1946 115.09 26.0944 115.09 28.1545V46.6953C115.09 47.1073 114.93 47.4506 114.609 47.7253C114.289 47.9542 113.946 48.0687 113.579 48.0687H106.644C106.278 48.0687 105.934 47.9542 105.614 47.7253C105.293 47.4506 105.133 47.1073 105.133 46.6953V30.8326Z" fill="#080312"/>
<path d="M134.098 13.6652C136.753 13.6652 139.133 14.1459 141.239 15.1073C143.345 16.0229 145.131 17.2589 146.595 18.8154C148.106 20.3262 149.251 22.0887 150.029 24.103C150.853 26.1173 151.265 28.2003 151.265 30.3519V32.206C151.265 32.618 151.151 32.9843 150.922 33.3047C150.693 33.6252 150.235 33.7854 149.548 33.7854H126.613C126.842 35.8913 127.711 37.5622 129.222 38.7983C130.733 40.0343 132.472 40.6524 134.441 40.6524C136.043 40.6524 137.394 40.3777 138.492 39.8283C139.637 39.279 140.667 38.4778 141.583 37.4249C141.812 37.196 142.063 37.0129 142.338 36.8755C142.658 36.7382 143.002 36.8069 143.368 37.0815L148.656 40.515C149.068 40.7897 149.274 41.133 149.274 41.5451C149.274 41.9571 149.159 42.3004 148.93 42.5751C147.557 44.3605 145.68 45.8941 143.299 47.176C140.965 48.412 137.943 49.03 134.235 49.03C131.58 49.03 129.153 48.5951 126.956 47.7253C124.804 46.8097 122.927 45.5737 121.325 44.0172C119.769 42.4149 118.555 40.5608 117.686 38.4549C116.816 36.3033 116.381 33.9914 116.381 31.5193C116.381 29.0472 116.816 26.7353 117.686 24.5837C118.555 22.3863 119.769 20.4864 121.325 18.8841C122.927 17.2818 124.804 16.0229 126.956 15.1073C129.153 14.1459 131.534 13.6652 134.098 13.6652ZM141.514 27.6052C141.056 25.5451 140.118 24.0343 138.698 23.073C137.279 22.1116 135.769 21.6309 134.166 21.6309C132.472 21.6309 130.939 22.1574 129.565 23.2103C128.238 24.2632 127.322 25.7282 126.819 27.6052H141.514Z" fill="#080312"/>
<path d="M159.186 64C157.126 64 155.203 63.6795 153.417 63.0386C151.678 62.4435 150.213 61.5966 149.023 60.4979C148.244 59.8112 148.198 58.9413 148.885 57.8884L151.357 54.3176C151.769 53.6767 152.25 53.3562 152.799 53.3562C153.394 53.402 153.921 53.5851 154.379 53.9056C154.928 54.3176 155.546 54.6838 156.233 55.0043C156.965 55.3247 157.721 55.485 158.499 55.485C159.46 55.485 160.307 55.2103 161.04 54.6609C161.772 54.1116 162.322 53.3333 162.688 52.3262L164.198 48.0687H160.696C160.193 48.0687 159.781 47.9313 159.46 47.6567C159.186 47.382 158.98 47.0386 158.842 46.6266L149.023 16.9614C148.839 16.3662 148.839 15.8398 149.023 15.382C149.206 14.8784 149.732 14.6266 150.602 14.6266H158.636C159.094 14.6266 159.437 14.7868 159.666 15.1073C159.941 15.4278 160.124 15.794 160.216 16.206L166.877 39.0043L173.057 16.206C173.148 15.794 173.332 15.4278 173.606 15.1073C173.927 14.7868 174.362 14.6266 174.911 14.6266H182.671C183.357 14.6266 183.792 14.8555 183.975 15.3133C184.204 15.7253 184.204 16.2747 183.975 16.9614L172.576 53.6996C171.569 56.8584 169.944 59.3534 167.701 61.1845C165.503 63.0615 162.665 64 159.186 64Z" fill="#080312"/>
<path d="M205.645 46.6953C205.645 47.1073 205.485 47.4506 205.164 47.7253C204.844 47.9542 204.5 48.0687 204.134 48.0687H197.198C196.786 48.0687 196.443 47.9313 196.168 47.6567C195.894 47.382 195.756 47.0386 195.756 46.6266V16.1373C195.756 15.7253 195.894 15.382 196.168 15.1073C196.443 14.7868 196.786 14.6266 197.198 14.6266H204.134C204.5 14.6266 204.844 14.7639 205.164 15.0386C205.485 15.3133 205.645 15.6338 205.645 16V18.1288C206.652 16.8927 208.048 15.8398 209.834 14.97C211.619 14.1001 213.588 13.6652 215.739 13.6652C218.166 13.6652 220.271 14.1688 222.057 15.176C223.842 16.1831 225.216 17.4878 226.177 19.0901C227.779 17.0758 229.61 15.6795 231.671 14.9013C233.731 14.0773 235.768 13.6652 237.782 13.6652C240.254 13.6652 242.406 14.0773 244.237 14.9013C246.068 15.7253 247.556 16.8011 248.701 18.1288C249.891 19.4564 250.761 20.9671 251.31 22.6609C251.905 24.309 252.203 26.0029 252.203 27.7425V46.6953C252.203 47.1073 252.043 47.4506 251.722 47.7253C251.402 47.9542 251.058 48.0687 250.692 48.0687H243.756C243.39 48.0687 243.047 47.9542 242.726 47.7253C242.406 47.4506 242.246 47.1073 242.246 46.6953V30.1459C242.246 28.0858 241.719 26.3462 240.666 24.927C239.613 23.5079 237.988 22.7983 235.791 22.7983C233.548 22.7983 231.831 23.5079 230.641 24.927C229.496 26.3462 228.924 28.0858 228.924 30.1459V46.6953C228.924 47.1073 228.764 47.4506 228.443 47.7253C228.123 47.9542 227.779 48.0687 227.413 48.0687H220.546C220.18 48.0687 219.837 47.9542 219.516 47.7253C219.196 47.4506 219.035 47.1073 219.035 46.6953V30.1459C219.035 28.0858 218.509 26.3462 217.456 24.927C216.403 23.5079 214.755 22.7983 212.512 22.7983C210.314 22.7983 208.621 23.5079 207.43 24.927C206.24 26.3462 205.645 28.0858 205.645 30.1459V46.6953Z" fill="#080312"/>
<path d="M263.555 31.382C263.555 32.5265 263.761 33.6252 264.173 34.6781C264.585 35.731 265.158 36.6466 265.89 37.4249C266.622 38.1574 267.492 38.7525 268.499 39.2103C269.507 39.6681 270.582 39.897 271.727 39.897C272.917 39.897 273.993 39.6681 274.954 39.2103C275.962 38.7525 276.831 38.1574 277.564 37.4249C278.296 36.6466 278.869 35.731 279.281 34.6781C279.693 33.6252 279.899 32.5265 279.899 31.382C279.899 30.1917 279.693 29.093 279.281 28.0858C278.869 27.0329 278.296 26.1402 277.564 25.4077C276.831 24.6295 275.962 24.0114 274.954 23.5536C273.993 23.0959 272.917 22.867 271.727 22.867C270.582 22.867 269.507 23.0959 268.499 23.5536C267.492 24.0114 266.622 24.6295 265.89 25.4077C265.158 26.1402 264.585 27.0329 264.173 28.0858C263.761 29.093 263.555 30.1917 263.555 31.382ZM253.529 31.3133C253.529 28.6123 253.987 26.186 254.903 24.0343C255.864 21.8369 257.123 19.9828 258.68 18.4721C260.236 16.9156 262.022 15.7253 264.036 14.9013C266.05 14.0773 268.133 13.6652 270.285 13.6652C272.528 13.6652 274.497 14.1001 276.19 14.97C277.884 15.794 279.12 16.8698 279.899 18.1974V16.1373C279.899 15.7253 280.036 15.382 280.311 15.1073C280.631 14.7868 280.974 14.6266 281.341 14.6266H288.276C288.688 14.6266 289.032 14.7868 289.306 15.1073C289.581 15.382 289.718 15.7253 289.718 16.1373V46.6266C289.718 47.0386 289.581 47.382 289.306 47.6567C289.032 47.9313 288.688 48.0687 288.276 48.0687H281.341C280.974 48.0687 280.631 47.9313 280.311 47.6567C280.036 47.382 279.899 47.0386 279.899 46.6266V44.4979C279.12 45.8255 277.861 46.9242 276.122 47.794C274.428 48.618 272.459 49.03 270.216 49.03C268.065 49.03 265.982 48.618 263.967 47.794C261.953 46.97 260.168 45.7797 258.611 44.2232C257.1 42.6667 255.864 40.8126 254.903 38.6609C253.987 36.4635 253.529 34.0143 253.529 31.3133Z" fill="#080312"/>
<path d="M302.753 46.6266C302.753 47.0386 302.616 47.382 302.341 47.6567C302.066 47.9313 301.723 48.0687 301.311 48.0687H294.375C293.963 48.0687 293.597 47.9313 293.277 47.6567C293.002 47.382 292.865 47.0386 292.865 46.6266V1.44206C292.865 1.03004 293.002 0.686697 293.277 0.41202C293.597 0.13734 293.963 0 294.375 0H301.311C301.723 0 302.066 0.13734 302.341 0.41202C302.616 0.686697 302.753 1.03004 302.753 1.44206V26.3004H305.157L312.779 15.794C313.054 15.3362 313.351 15.0386 313.672 14.9013C314.038 14.7182 314.404 14.6266 314.77 14.6266H322.187C322.919 14.6266 323.377 14.8784 323.56 15.382C323.743 15.8856 323.629 16.4349 323.217 17.03L313.672 29.4592L324.796 45.5966C325.162 46.1917 325.231 46.7639 325.002 47.3133C324.773 47.8169 324.27 48.0687 323.491 48.0687H315.732C314.862 48.0687 314.175 47.6567 313.672 46.8326L305.363 34.2661H302.753V46.6266Z" fill="#080312"/>
<path d="M339.385 13.6652C342.04 13.6652 344.42 14.1459 346.526 15.1073C348.632 16.0229 350.418 17.2589 351.882 18.8154C353.393 20.3262 354.538 22.0887 355.316 24.103C356.14 26.1173 356.552 28.2003 356.552 30.3519V32.206C356.552 32.618 356.438 32.9843 356.209 33.3047C355.98 33.6252 355.522 33.7854 354.835 33.7854H331.9C332.129 35.8913 332.998 37.5622 334.509 38.7983C336.02 40.0343 337.759 40.6524 339.728 40.6524C341.33 40.6524 342.681 40.3777 343.779 39.8283C344.924 39.279 345.954 38.4778 346.87 37.4249C347.098 37.196 347.35 37.0129 347.625 36.8755C347.945 36.7382 348.289 36.8069 348.655 37.0815L353.943 40.515C354.355 40.7897 354.561 41.133 354.561 41.5451C354.561 41.9571 354.446 42.3004 354.217 42.5751C352.844 44.3605 350.967 45.8941 348.586 47.176C346.252 48.412 343.23 49.03 339.522 49.03C336.867 49.03 334.44 48.5951 332.243 47.7253C330.091 46.8097 328.214 45.5737 326.612 44.0172C325.056 42.4149 323.842 40.5608 322.973 38.4549C322.103 36.3033 321.668 33.9914 321.668 31.5193C321.668 29.0472 322.103 26.7353 322.973 24.5837C323.842 22.3863 325.056 20.4864 326.612 18.8841C328.214 17.2818 330.091 16.0229 332.243 15.1073C334.44 14.1459 336.821 13.6652 339.385 13.6652ZM346.801 27.6052C346.343 25.5451 345.405 24.0343 343.985 23.073C342.566 22.1116 341.056 21.6309 339.453 21.6309C337.759 21.6309 336.226 22.1574 334.852 23.2103C333.525 24.2632 332.609 25.7282 332.106 27.6052H346.801Z" fill="#080312"/>
<path d="M369.666 30.0773C369.666 30.4893 369.506 30.8555 369.185 31.176C368.91 31.4964 368.544 31.6567 368.086 31.6567H361.013C360.556 31.6567 360.166 31.4964 359.846 31.176C359.571 30.8555 359.434 30.4893 359.434 30.0773L359.297 1.51073C359.297 1.09871 359.457 0.755366 359.777 0.480689C360.098 0.16023 360.487 0 360.945 0H368.155C368.613 0 368.979 0.16023 369.254 0.480689C369.574 0.755366 369.734 1.09871 369.734 1.51073L369.666 30.0773ZM364.516 49.03C363.646 49.03 362.822 48.8469 362.043 48.4807C361.265 48.1602 360.578 47.7253 359.983 47.176C359.388 46.5808 358.908 45.8941 358.541 45.1159C358.221 44.2918 358.061 43.4449 358.061 42.5751C358.061 41.6595 358.221 40.8126 358.541 40.0343C358.908 39.2561 359.388 38.5923 359.983 38.0429C360.578 37.4478 361.265 36.99 362.043 36.6695C362.822 36.3033 363.646 36.1202 364.516 36.1202C366.301 36.1202 367.835 36.7611 369.116 38.0429C370.398 39.279 371.039 40.7897 371.039 42.5751C371.039 44.3605 370.398 45.8941 369.116 47.176C367.835 48.412 366.301 49.03 364.516 49.03Z" fill="#080312"/>
</svg>
